<svg width="152" height="151" viewBox="0 0 152 151" fill="none" xmlns="http://www.w3.org/2000/svg">
<circle cx="76" cy="75.1313" r="50" fill="#93BFCF" fill-opacity="0.5"/>
<path d="M66.625 63.8813H77.875V65.7563H66.625V63.8813Z" fill="#6096B4"/>
<path d="M79.75 63.8813H81.625V65.7563H79.75V63.8813Z" fill="#6096B4"/>
<path d="M83.5 63.8813H85.375V65.7563H83.5V63.8813Z" fill="#6096B4"/>
<path d="M66.625 71.3813H77.875V73.2563H66.625V71.3813Z" fill="#6096B4"/>
<path d="M79.75 71.3813H81.625V73.2563H79.75V71.3813Z" fill="#6096B4"/>
<path d="M83.5 71.3813H85.375V73.2563H83.5V71.3813Z" fill="#6096B4"/>
<path d="M66.625 78.8813H77.875V80.7563H66.625V78.8813Z" fill="#6096B4"/>
<path d="M79.75 78.8813H81.625V80.7563H79.75V78.8813Z" fill="#6096B4"/>
<path d="M83.5 78.8813H85.375V80.7563H83.5V78.8813Z" fill="#6096B4"/>
<path d="M100.375 85.4441C99.5439 85.4451 98.7366 85.7218 98.0795 86.2307C97.4224 86.7397 96.9526 87.4521 96.7437 88.2566H86.3125V84.5066C87.0582 84.5057 87.773 84.2091 88.3003 83.6819C88.8275 83.1546 89.1241 82.4397 89.125 81.6941V78.8816H94.75C96.0452 78.8806 97.3261 78.6113 98.5121 78.0906C99.698 77.57 100.763 76.8092 101.64 75.8563C102.518 74.9034 103.188 73.7791 103.609 72.5543C104.03 71.3294 104.193 70.0306 104.087 68.7398C103.981 67.4489 103.609 66.194 102.993 65.0542C102.378 63.9144 101.534 62.9144 100.513 62.1173C99.492 61.3202 98.317 60.7433 97.0621 60.4229C95.8071 60.1025 94.4994 60.0457 93.2214 60.2559C92.3043 56.7963 90.3665 53.6931 87.6604 51.3506C84.9542 49.0081 81.6053 47.535 78.05 47.1232C74.4946 46.7114 70.8976 47.38 67.7277 49.0418C64.5578 50.7037 61.9619 53.2818 60.2782 56.4402C59.8951 56.4012 59.5102 56.3816 59.125 56.3816C56.1413 56.3816 53.2798 57.5668 51.17 59.6766C49.0603 61.7864 47.875 64.6479 47.875 67.6316C47.875 70.6153 49.0603 73.4768 51.17 75.5865C53.2798 77.6963 56.1413 78.8816 59.125 78.8816H62.875V81.6941C62.8759 82.4397 63.1725 83.1546 63.6997 83.6819C64.227 84.2091 64.9418 84.5057 65.6875 84.5066V88.2566H55.2563C55.0281 87.3728 54.4854 86.6027 53.73 86.0904C52.9746 85.5781 52.0583 85.359 51.1529 85.474C50.2474 85.589 49.415 86.0303 48.8116 86.7151C48.2082 87.4 47.8754 88.2814 47.8754 89.1941C47.8754 90.1068 48.2082 90.9882 48.8116 91.6731C49.415 92.3579 50.2474 92.7992 51.1529 92.9142C52.0583 93.0292 52.9746 92.81 53.73 92.2978C54.4854 91.7855 55.0281 91.0153 55.2563 90.1316H66.625C66.8736 90.1316 67.1121 90.0328 67.2879 89.857C67.4637 89.6812 67.5625 89.4427 67.5625 89.1941V84.5066H69.4375V92.0066H61.9375C61.6889 92.0066 61.4504 92.1054 61.2746 92.2812C61.0988 92.457 61 92.6954 61 92.9441V95.8753C60.1163 96.1035 59.3461 96.6461 58.8338 97.4016C58.3215 98.157 58.1024 99.0733 58.2174 99.9787C58.3324 100.884 58.7737 101.717 59.4585 102.32C60.1434 102.923 61.0248 103.256 61.9375 103.256C62.8502 103.256 63.7316 102.923 64.4165 102.32C65.1013 101.717 65.5426 100.884 65.6576 99.9787C65.7726 99.0733 65.5535 98.157 65.0412 97.4016C64.5289 96.6461 63.7587 96.1035 62.875 95.8753V93.8816H70.375C70.6236 93.8816 70.8621 93.7828 71.0379 93.607C71.2137 93.4312 71.3125 93.1927 71.3125 92.9441V84.5066H75.0625V94.0003C74.1788 94.2285 73.4086 94.7711 72.8963 95.5266C72.384 96.282 72.1649 97.1983 72.2799 98.1037C72.3949 99.0092 72.8362 99.8416 73.521 100.445C74.2059 101.048 75.0873 101.381 76 101.381C76.9127 101.381 77.7941 101.048 78.479 100.445C79.1638 99.8416 79.6051 99.0092 79.7201 98.1037C79.8351 97.1983 79.6159 96.282 79.1037 95.5266C78.5914 94.7711 77.8212 94.2285 76.9375 94.0003V84.5066H80.6875V92.9441C80.6875 93.1927 80.7863 93.4312 80.9621 93.607C81.1379 93.7828 81.3764 93.8816 81.625 93.8816H89.125V95.8753C88.2413 96.1035 87.4711 96.6461 86.9588 97.4016C86.4466 98.157 86.2274 99.0733 86.3424 99.9787C86.4574 100.884 86.8987 101.717 87.5835 102.32C88.2684 102.923 89.1498 103.256 90.0625 103.256C90.9752 103.256 91.8566 102.923 92.5415 102.32C93.2263 101.717 93.6676 100.884 93.7826 99.9787C93.8976 99.0733 93.6784 98.157 93.1662 97.4016C92.6539 96.6461 91.8837 96.1035 91 95.8753V92.9441C91 92.6954 90.9012 92.457 90.7254 92.2812C90.5496 92.1054 90.3111 92.0066 90.0625 92.0066H82.5625V84.5066H84.4375V89.1941C84.4375 89.4427 84.5363 89.6812 84.7121 89.857C84.8879 90.0328 85.1264 90.1316 85.375 90.1316H96.7437C96.9191 90.8107 97.2813 91.427 97.7894 91.9105C98.2974 92.394 98.9309 92.7254 99.6178 92.8669C100.305 93.0085 101.018 92.9545 101.675 92.7113C102.333 92.468 102.91 92.0451 103.339 91.4906C103.769 90.9362 104.034 90.2724 104.105 89.5746C104.176 88.8769 104.051 88.1732 103.742 87.5434C103.433 86.9137 102.954 86.3831 102.359 86.012C101.764 85.6409 101.076 85.4442 100.375 85.4441ZM51.625 91.0691C51.2542 91.0691 50.8916 90.9591 50.5833 90.7531C50.275 90.5471 50.0346 90.2542 49.8927 89.9116C49.7508 89.569 49.7137 89.192 49.786 88.8283C49.8584 88.4646 50.037 88.1305 50.2992 87.8683C50.5614 87.606 50.8955 87.4275 51.2592 87.3551C51.6229 87.2828 51.9999 87.3199 52.3425 87.4618C52.6851 87.6037 52.978 87.844 53.184 88.1524C53.39 88.4607 53.5 88.8232 53.5 89.1941C53.4994 89.6912 53.3017 90.1678 52.9502 90.5193C52.5987 90.8708 52.1221 91.0685 51.625 91.0691ZM63.8125 99.5066C63.8125 99.8774 63.7025 100.24 63.4965 100.548C63.2905 100.857 62.9976 101.097 62.655 101.239C62.3124 101.381 61.9354 101.418 61.5717 101.346C61.208 101.273 60.8739 101.095 60.6117 100.832C60.3495 100.57 60.1709 100.236 60.0985 99.8724C60.0262 99.5087 60.0633 99.1317 60.2052 98.7891C60.3471 98.4464 60.5875 98.1536 60.8958 97.9476C61.2041 97.7416 61.5667 97.6316 61.9375 97.6316C62.4346 97.6322 62.9112 97.8299 63.2627 98.1814C63.6142 98.5329 63.8119 99.0095 63.8125 99.5066ZM77.875 97.6316C77.875 98.0024 77.765 98.3649 77.559 98.6733C77.353 98.9816 77.0601 99.2219 76.7175 99.3639C76.3749 99.5058 75.9979 99.5429 75.6342 99.4706C75.2705 99.3982 74.9364 99.2196 74.6742 98.9574C74.412 98.6952 74.2334 98.3611 74.161 97.9974C74.0887 97.6337 74.1258 97.2567 74.2677 96.9141C74.4096 96.5714 74.65 96.2786 74.9583 96.0726C75.2666 95.8666 75.6292 95.7566 76 95.7566C76.4971 95.7572 76.9737 95.9549 77.3252 96.3064C77.6767 96.6579 77.8744 97.1345 77.875 97.6316ZM91.9375 99.5066C91.9375 99.8774 91.8275 100.24 91.6215 100.548C91.4155 100.857 91.1226 101.097 90.78 101.239C90.4374 101.381 90.0604 101.418 89.6967 101.346C89.333 101.273 88.9989 101.095 88.7367 100.832C88.4744 100.57 88.2959 100.236 88.2235 99.8724C88.1512 99.5087 88.1883 99.1317 88.3302 98.7891C88.4721 98.4464 88.7125 98.1536 89.0208 97.9476C89.3291 97.7416 89.6917 97.6316 90.0625 97.6316C90.5596 97.6322 91.0362 97.8299 91.3877 98.1814C91.7392 98.5329 91.9369 99.0095 91.9375 99.5066ZM64.75 66.6941V62.9441C64.7503 62.6955 64.8491 62.4572 65.0249 62.2815C65.2007 62.1057 65.4389 62.0069 65.6875 62.0066H86.3125C86.5611 62.0069 86.7994 62.1057 86.9751 62.2815C87.1509 62.4572 87.2497 62.6955 87.25 62.9441V66.6941C87.2497 66.9426 87.1509 67.1809 86.9751 67.3567C86.7994 67.5324 86.5611 67.6313 86.3125 67.6316H65.6875C65.4389 67.6313 65.2007 67.5324 65.0249 67.3567C64.8491 67.1809 64.7503 66.9426 64.75 66.6941ZM64.75 74.1941V70.4441C64.7503 70.1955 64.8491 69.9572 65.0249 69.7815C65.2007 69.6057 65.4389 69.5069 65.6875 69.5066H86.3125C86.5611 69.5069 86.7994 69.6057 86.9751 69.7815C87.1509 69.9572 87.2497 70.1955 87.25 70.4441V74.1941C87.2497 74.4426 87.1509 74.6809 86.9751 74.8567C86.7994 75.0324 86.5611 75.1313 86.3125 75.1316H65.6875C65.4389 75.1313 65.2007 75.0324 65.0249 74.8567C64.8491 74.6809 64.7503 74.4426 64.75 74.1941ZM49.75 67.6316C49.7528 65.146 50.7414 62.7631 52.499 61.0056C54.2565 59.248 56.6395 58.2594 59.125 58.2566C59.6393 58.2565 60.1527 58.2982 60.6602 58.3813C60.8596 58.4143 61.0644 58.3819 61.2439 58.289C61.4234 58.1961 61.5681 58.0476 61.6563 57.8656C63.108 54.8728 65.4595 52.409 68.3815 50.8195C71.3034 49.2299 74.6494 48.5941 77.9507 49.0013C81.2521 49.4084 84.3434 50.838 86.7916 53.0898C89.2398 55.3416 90.9224 58.3028 91.6035 61.5587C91.6296 61.6842 91.6811 61.803 91.7549 61.9078C91.8287 62.0126 91.9232 62.1012 92.0326 62.168C92.142 62.2348 92.2639 62.2785 92.3908 62.2964C92.5178 62.3142 92.647 62.3058 92.7706 62.2718C93.8018 61.99 94.8814 61.932 95.9369 62.1015C96.9924 62.2711 97.9994 62.6643 98.8905 63.2549C99.7816 63.8454 100.536 64.6197 101.104 65.5257C101.671 66.4317 102.038 67.4485 102.181 68.508C102.323 69.5676 102.237 70.6453 101.929 71.6689C101.621 72.6925 101.097 73.6384 100.394 74.4432C99.6899 75.248 98.8223 75.8931 97.849 76.3352C96.8756 76.7773 95.819 77.0062 94.75 77.0066H88.9637C88.8409 76.6607 88.6516 76.3423 88.4065 76.0691C88.8695 75.5544 89.1255 74.8864 89.125 74.1941V70.4441C89.1255 69.7518 88.8695 69.0838 88.4065 68.5691C88.8695 68.0544 89.1255 67.3864 89.125 66.6941V62.9441C89.1241 62.1984 88.8275 61.4836 88.3003 60.9563C87.773 60.429 87.0582 60.1325 86.3125 60.1316H65.6875C64.9418 60.1325 64.227 60.429 63.6997 60.9563C63.1725 61.4836 62.8759 62.1984 62.875 62.9441V66.6941C62.8745 67.3864 63.1305 68.0544 63.5935 68.5691C63.1305 69.0838 62.8745 69.7518 62.875 70.4441V74.1941C62.8745 74.8864 63.1305 75.5544 63.5935 76.0691C63.3484 76.3423 63.1591 76.6607 63.0363 77.0066H59.125C56.6395 77.0038 54.2565 76.0151 52.499 74.2576C50.7414 72.5001 49.7528 70.1171 49.75 67.6316ZM64.75 81.6941V77.9441C64.7503 77.6955 64.8491 77.4572 65.0249 77.2815C65.2007 77.1057 65.4389 77.0069 65.6875 77.0066H86.3125C86.5611 77.0069 86.7994 77.1057 86.9751 77.2815C87.1509 77.4572 87.2497 77.6955 87.25 77.9441V81.6941C87.2497 81.9426 87.1509 82.1809 86.9751 82.3567C86.7994 82.5324 86.5611 82.6313 86.3125 82.6316H65.6875C65.4389 82.6313 65.2007 82.5324 65.0249 82.3567C64.8491 82.1809 64.7503 81.9426 64.75 81.6941ZM100.375 91.0691C100.004 91.0691 99.6416 90.9591 99.3333 90.7531C99.025 90.5471 98.7846 90.2542 98.6427 89.9116C98.5008 89.569 98.4637 89.192 98.536 88.8283C98.6084 88.4646 98.7869 88.1305 99.0492 87.8683C99.3114 87.606 99.6455 87.4275 100.009 87.3551C100.373 87.2828 100.75 87.3199 101.093 87.4618C101.435 87.6037 101.728 87.844 101.934 88.1524C102.14 88.4607 102.25 88.8232 102.25 89.1941C102.249 89.6912 102.052 90.1678 101.7 90.5193C101.349 90.8708 100.872 91.0685 100.375 91.0691Z" fill="#6096B4"/>
<path d="M22.874 60.8963C20.0586 71.4037 20.4222 82.5099 23.9188 92.8106C27.4154 103.111 33.888 112.144 42.5181 118.766C51.1481 125.388 61.5481 129.302 72.4028 130.014C83.2575 130.725 94.0793 128.202 103.5 122.763C112.921 117.324 120.517 109.213 125.328 99.4573C130.139 89.7011 131.949 78.7374 130.529 67.9525C129.11 57.1675 124.523 47.0459 117.351 38.8674C110.179 30.6889 100.742 24.8209 90.235 22.0055L89.6025 24.3661C99.6429 27.0564 108.66 32.6637 115.514 40.4788C122.367 48.2938 126.75 57.9658 128.106 68.2715C129.463 78.5771 127.733 89.0537 123.136 98.3764C118.539 107.699 111.28 115.449 102.278 120.646C93.276 125.844 82.935 128.255 72.5626 127.575C62.1903 126.895 52.2524 123.155 44.0058 116.827C35.7592 110.499 29.5742 101.868 26.233 92.025C22.8918 82.182 22.5443 71.5693 25.2347 61.5289L22.874 60.8963Z" fill="#6096B4"/>
<circle cx="89" cy="22.1313" r="5" fill="#6096B4"/>
<circle cx="24" cy="58.1313" r="5" fill="#6096B4"/>
</svg>
