<svg width="32" height="32" viewBox="0 0 32 32" fill="none" xmlns="http://www.w3.org/2000/svg">
<path d="M2.8125 20.3318C2.71304 20.3318 2.61766 20.3713 2.54733 20.4416C2.47701 20.5119 2.4375 20.6073 2.4375 20.7068V21.0693C2.4375 21.1687 2.47701 21.2641 2.54733 21.3345C2.61766 21.4048 2.71304 21.4443 2.8125 21.4443C2.91196 21.4443 3.00734 21.4048 3.07767 21.3345C3.14799 21.2641 3.1875 21.1687 3.1875 21.0693V20.7068C3.1875 20.6073 3.14799 20.5119 3.07767 20.4416C3.00734 20.3713 2.91196 20.3318 2.8125 20.3318Z" fill="#6096B4"/>
<path d="M2.8125 21.7896C2.71304 21.7896 2.61766 21.8291 2.54733 21.8994C2.47701 21.9697 2.4375 22.0651 2.4375 22.1646V26.5443C2.4375 26.6438 2.47701 26.7391 2.54733 26.8095C2.61766 26.8798 2.71304 26.9193 2.8125 26.9193C2.91196 26.9193 3.00734 26.8798 3.07767 26.8095C3.14799 26.7391 3.1875 26.6438 3.1875 26.5443V22.1646C3.1875 22.0651 3.14799 21.9697 3.07767 21.8994C3.00734 21.8291 2.91196 21.7896 2.8125 21.7896Z" fill="#6096B4"/>
<path d="M30.9375 26.6621C30.7043 26.6617 30.4733 26.7073 30.2578 26.7962C30.0422 26.8851 29.8463 27.0156 29.6812 27.1803C29.5161 27.345 29.385 27.5406 29.2956 27.756C29.2061 27.9713 29.16 28.2022 29.1598 28.4354C29.1598 28.5756 29.1321 28.7143 29.0783 28.8437C29.0245 28.9732 28.9457 29.0907 28.8464 29.1896C28.747 29.2885 28.6292 29.3668 28.4996 29.4201C28.3699 29.4734 28.2311 29.5005 28.0909 29.5H26.782C27.8402 28.9179 28.7227 28.0625 29.3374 27.0229C29.9522 25.9834 30.2766 24.7979 30.2768 23.5902C30.2768 19.8745 27.2615 16.8515 23.5551 16.8515C22.2402 16.8502 20.9542 17.2375 19.8588 17.9648C19.1733 17.0077 18.167 16.3286 17.023 16.0509C16.0172 15.801 15.0492 15.4183 14.1445 14.9129L13.4375 14.5263V14.2339C14.4375 13.4484 15.125 12.2204 15.125 10.8418V10.7577C15.382 10.71 15.6146 10.5749 15.7832 10.3753C15.9519 10.1757 16.0463 9.92385 16.0505 9.66253C16.0497 9.49179 16.0096 9.32353 15.9332 9.17084C15.8568 9.01815 15.7461 8.88516 15.6099 8.78222C16.1581 7.17312 16.1117 5.42087 15.4792 3.84303L15.3042 3.41097C15.4344 3.1392 15.5014 2.84146 15.5 2.5401V2.04635C15.5005 1.98505 15.4858 1.92458 15.4573 1.87032C15.4288 1.81606 15.3873 1.76968 15.3366 1.7353C15.2858 1.70092 15.2274 1.67961 15.1664 1.67327C15.1054 1.66692 15.0438 1.67573 14.9871 1.69891C13.9671 2.11253 11.1375 1.95135 9.0239 1.68753C8.87173 1.66688 8.71709 1.67344 8.56722 1.70691C8.27175 1.77505 8.00821 1.94156 7.81981 2.17913C7.6314 2.41671 7.52931 2.71126 7.53028 3.01447C7.52985 3.17193 7.46697 3.32279 7.35545 3.43395C7.24393 3.54511 7.09286 3.60749 6.9354 3.60741C6.69925 3.60648 6.46832 3.67681 6.27276 3.8092C6.07721 3.94158 5.92614 4.12988 5.83928 4.34947L5.80178 4.44322C5.27596 5.75599 5.27596 7.22083 5.80178 8.5336L5.93109 8.85791C5.8202 8.96078 5.73147 9.0852 5.67034 9.22356C5.6092 9.36191 5.57694 9.51128 5.57553 9.66253C5.57948 9.92375 5.67371 10.1756 5.84223 10.3752C6.01076 10.5748 6.24318 10.7099 6.50003 10.7577V10.8418C6.50003 12.1443 7.12503 13.3122 8.00003 14.0998V14.6456L7.11347 15.095C6.25738 15.5168 5.35518 15.8375 4.42503 16.0509C3.35828 16.3034 2.40835 16.9094 1.72976 17.7703C1.05116 18.6312 0.683834 19.6964 0.687528 20.7927V27.8652C0.687159 27.9657 0.726242 28.0623 0.79637 28.1343C0.866499 28.2062 0.96207 28.2478 1.06253 28.25H18.7041C19.4503 29.0327 20.3747 29.6234 21.3985 29.9716C22.4223 30.3199 23.5151 30.4154 24.5838 30.25H28.0909C28.3295 30.2504 28.5658 30.2037 28.7864 30.1127C29.0069 30.0217 29.2074 29.8881 29.3763 29.7196C29.5452 29.5511 29.6792 29.3509 29.7708 29.1306C29.8623 28.9102 29.9095 28.674 29.9097 28.4354C29.9096 28.3004 29.9362 28.1668 29.9879 28.0421C30.0395 27.9174 30.1152 27.8041 30.2107 27.7087C30.3062 27.6133 30.4195 27.5377 30.5442 27.4861C30.6689 27.4345 30.8026 27.408 30.9375 27.408C30.9869 27.4087 31.0359 27.3995 31.0817 27.381C31.1276 27.3626 31.1692 27.3352 31.2044 27.3005C31.2395 27.2658 31.2675 27.2245 31.2865 27.1789C31.3056 27.1334 31.3154 27.0845 31.3154 27.0351C31.3154 26.9857 31.3056 26.9368 31.2865 26.8912C31.2675 26.8456 31.2395 26.8043 31.2044 26.7696C31.1692 26.7349 31.1276 26.7075 31.0817 26.6891C31.0359 26.6706 30.9869 26.6615 30.9375 26.6621ZM6.49872 4.72078L6.53622 4.62703C6.56791 4.54705 6.62299 4.47849 6.69426 4.43029C6.76553 4.3821 6.84968 4.35653 6.93572 4.35691C7.29203 4.35678 7.63374 4.21531 7.88588 3.96355C8.13802 3.71178 8.27999 3.37028 8.28065 3.01397C8.28027 2.88009 8.32538 2.75005 8.40859 2.64516C8.49181 2.54028 8.60819 2.46678 8.73865 2.43672C8.80205 2.42366 8.86725 2.42182 8.93128 2.43128C9.93634 2.55685 13.0722 2.9006 14.754 2.54491C14.7519 2.87902 14.6176 3.19871 14.3806 3.4342C14.1436 3.66968 13.823 3.80182 13.4889 3.80178C13.3894 3.80178 13.2941 3.84129 13.2237 3.91162C13.1534 3.98195 13.1139 4.07733 13.1139 4.17678C13.1139 4.27624 13.1534 4.37162 13.2237 4.44195C13.2941 4.51228 13.3894 4.55178 13.4889 4.55178C13.9562 4.55227 14.409 4.38977 14.7693 4.09228L14.7871 4.12085C15.2527 5.26786 15.3701 6.52664 15.1246 7.73997V7.61441C15.1246 6.04228 14.0575 5.30191 13.2596 4.88147C13.2089 4.85503 13.1528 4.84033 13.0957 4.83844C13.0385 4.83656 12.9816 4.84755 12.9293 4.8706C12.8773 4.89356 12.8312 4.92797 12.7944 4.97126C12.7576 5.01455 12.7311 5.0656 12.7168 5.1206C12.5142 5.91516 11.3205 6.03378 10.6273 6.03378C9.46628 6.03378 8.79934 5.78528 8.5894 5.27422L8.58503 5.26366C8.56428 5.21123 8.53198 5.16415 8.49052 5.12594C8.44907 5.08772 8.39953 5.05934 8.34559 5.04291C8.29045 5.02648 8.23236 5.02241 8.17546 5.03099C8.11856 5.03957 8.06425 5.06058 8.0164 5.09253C7.23284 5.63128 6.50003 6.30966 6.50003 7.61441V8.29616L6.49128 8.25566C6.03932 7.12021 6.04199 5.85432 6.49872 4.72078ZM7.25003 10.8418V10.397C7.25003 10.1899 7.0969 10 6.88984 10H6.69378C6.64729 10.0022 6.60084 9.99493 6.55724 9.97863C6.51364 9.96234 6.4738 9.93737 6.44013 9.90523C6.40646 9.8731 6.37966 9.83447 6.36135 9.79168C6.34303 9.74889 6.33359 9.70283 6.33359 9.65628C6.33359 9.60974 6.34303 9.56368 6.36135 9.52089C6.37966 9.4781 6.40646 9.43947 6.44013 9.40734C6.4738 9.3752 6.51364 9.35023 6.55724 9.33394C6.60084 9.31764 6.64729 9.31036 6.69378 9.31253H6.88997C6.93889 9.3112 6.98706 9.30018 7.0317 9.28011C7.07635 9.26005 7.11657 9.23134 7.15005 9.19564C7.18353 9.15994 7.2096 9.11796 7.22676 9.07212C7.24392 9.02629 7.25183 8.97751 7.25003 8.9286V7.61441C7.25003 6.85022 7.57859 6.37947 8.1164 5.94991C8.77797 6.78372 10.1381 6.78385 10.6232 6.78385C12.2048 6.78385 12.9402 6.28891 13.263 5.75003C14.0323 6.24185 14.375 6.81572 14.375 7.61441V8.9286C14.3734 8.97765 14.3816 9.02654 14.399 9.07244C14.4164 9.11834 14.4427 9.16035 14.4763 9.19603C14.51 9.23172 14.5505 9.26039 14.5953 9.28039C14.6401 9.30038 14.6885 9.31131 14.7375 9.31253H14.9337C14.9802 9.31036 15.0267 9.31764 15.0703 9.33394C15.1139 9.35023 15.1537 9.3752 15.1874 9.40734C15.221 9.43947 15.2478 9.4781 15.2661 9.52089C15.2845 9.56368 15.2939 9.60974 15.2939 9.65628C15.2939 9.70283 15.2845 9.74889 15.2661 9.79168C15.2478 9.83447 15.221 9.8731 15.1874 9.90523C15.1537 9.93737 15.1139 9.96234 15.0703 9.97863C15.0267 9.99493 14.9802 10.0022 14.9337 10H14.7375C14.5304 10 14.3753 10.1899 14.3753 10.397V10.8418C14.3753 12.7941 12.7696 14.3825 10.8128 14.3825C8.85609 14.3825 7.25003 12.7941 7.25003 10.8418ZM12.6875 14.7007V16.0887C12.4342 16.3564 12.129 16.5697 11.7905 16.7154C11.452 16.8611 11.0873 16.9363 10.7188 16.9363C10.3502 16.9363 9.98556 16.8611 9.64706 16.7154C9.30855 16.5697 9.00332 16.3564 8.75003 16.0887V14.6163C9.38106 14.954 10.0855 15.1312 10.8012 15.1325C11.4546 15.1337 12.0997 14.9861 12.6875 14.7007ZM8.00003 15.4845V16.2316C8.0039 16.3217 8.03917 16.4075 8.09972 16.4743C8.42327 16.8543 8.82547 17.1594 9.27851 17.3687C9.73156 17.5779 10.2246 17.6863 10.7237 17.6863C11.2227 17.6863 11.7158 17.5779 12.1689 17.3687C12.6219 17.1594 13.0241 16.8543 13.3477 16.4743C13.4054 16.4066 13.4373 16.3206 13.4375 16.2316V15.3816L13.6875 15.5003V15.5721C13.6875 17.1846 12.3578 18.4971 10.7414 18.4971C9.13334 18.4971 7.80622 17.1985 7.79272 15.5971L8.00003 15.4845ZM4.75003 27.5V23.9072C4.75003 23.8078 4.71052 23.7124 4.64019 23.6421C4.56987 23.5717 4.47448 23.5322 4.37503 23.5322C4.27557 23.5322 4.18019 23.5717 4.10986 23.6421C4.03954 23.7124 4.00003 23.8078 4.00003 23.9072V27.5H1.43753V20.7927C1.43534 19.8646 1.74711 18.963 2.32214 18.2346C2.89718 17.5061 3.70168 16.9935 4.6049 16.7802C5.44959 16.584 6.27341 16.3069 7.06497 15.9528C7.13772 16.651 7.41013 17.3134 7.84959 17.8608V17.933L4.61684 19.921C4.57215 19.9485 4.53373 19.985 4.50405 20.0283C4.47436 20.0715 4.45408 20.1205 4.44452 20.1721C4.43495 20.2237 4.43631 20.2767 4.44851 20.3277C4.46071 20.3787 4.48348 20.4266 4.51534 20.4683L6.25422 22.7425L5.21365 23.7193C5.14732 23.7825 5.10594 23.8675 5.09708 23.9586C5.08822 24.0498 5.11247 24.1412 5.1654 24.216L7.5139 27.5H4.75003ZM5.9664 24.0413L7.01465 23.0573C7.08239 22.9938 7.12412 22.9073 7.13174 22.8147C7.13936 22.7221 7.11234 22.63 7.0559 22.5562L5.36328 20.3425L7.8514 18.8125L7.86647 26.6944L5.9664 24.0413ZM12.8356 27.5H8.61803L8.6009 18.5746C9.22383 19.0143 9.96773 19.2501 10.7302 19.2495C11.4927 19.249 12.2362 19.0121 12.8585 18.5715L12.8356 27.5ZM13.608 18.7971L16.0965 20.2938L14.4496 22.5638C14.3969 22.6365 14.372 22.7256 14.3795 22.8151C14.387 22.9045 14.4263 22.9883 14.4903 23.0513L15.4913 24.0351L13.5875 26.6933L13.608 18.7971ZM16.6875 23.9072V27.5H13.9395L16.288 24.216C16.34 24.1428 16.3644 24.0536 16.3567 23.9641C16.349 23.8747 16.3098 23.7909 16.246 23.7277L15.246 22.744L16.9438 20.4037C16.9743 20.3616 16.9958 20.3136 17.0068 20.2628C17.0178 20.2119 17.0181 20.1594 17.0077 20.1084C16.9974 20.0575 16.9765 20.0092 16.9465 19.9667C16.9165 19.9243 16.878 19.8885 16.8335 19.8617L13.6103 17.9234V17.8527C14.0601 17.2887 14.3327 16.6041 14.3938 15.8853C15.1769 16.2723 16 16.5724 16.8484 16.7803C17.8218 17.0167 18.6771 17.5965 19.2573 18.413C18.4982 19.0453 17.8876 19.8369 17.4686 20.7316C17.0497 21.6263 16.8328 22.6023 16.8332 23.5902V23.6107C16.7878 23.6456 16.7511 23.6906 16.7258 23.742C16.7006 23.7934 16.6875 23.8499 16.6875 23.9072ZM17.4375 27.5V26.3813C17.6166 26.774 17.8329 27.1486 18.0835 27.5H17.4375ZM23.5551 29.5789C20.2623 29.5789 17.5833 26.8923 17.5833 23.5902C17.5833 20.2881 20.2623 17.6015 23.5551 17.6015C26.8479 17.6015 29.5268 20.288 29.5268 23.5902C29.5268 26.8924 26.8479 29.5789 23.5551 29.5789Z" fill="#6096B4"/>
<path d="M23.5552 22.3507C23.3926 22.3503 23.2315 22.3822 23.0813 22.4446C22.931 22.5069 22.7947 22.5985 22.6802 22.714C22.4488 22.9468 22.3188 23.2618 22.3188 23.5901C22.3188 23.9184 22.4488 24.2333 22.6802 24.4662C22.795 24.5813 22.9313 24.6727 23.0815 24.735C23.2316 24.7974 23.3926 24.8294 23.5552 24.8294C23.7178 24.8294 23.8788 24.7974 24.0289 24.735C24.1791 24.6727 24.3154 24.5813 24.4302 24.4662C24.6616 24.2333 24.7915 23.9184 24.7915 23.5901C24.7915 23.2618 24.6616 22.9469 24.4302 22.714C24.3157 22.5985 24.1794 22.5069 24.0292 22.4446C23.879 22.3822 23.7178 22.3503 23.5552 22.3507ZM23.8993 23.9366C23.8542 23.9819 23.8006 24.0179 23.7415 24.0424C23.6825 24.067 23.6192 24.0796 23.5552 24.0796C23.4913 24.0796 23.4279 24.067 23.3689 24.0424C23.3098 24.0179 23.2562 23.9819 23.2111 23.9366C23.1196 23.8445 23.0682 23.72 23.0682 23.5901C23.0682 23.4603 23.1196 23.3358 23.2111 23.2437C23.2562 23.1984 23.3098 23.1625 23.3689 23.1379C23.4279 23.1134 23.4912 23.1008 23.5552 23.1008C23.6191 23.1008 23.6824 23.1134 23.7415 23.1379C23.8005 23.1625 23.8541 23.1984 23.8993 23.2437C23.9908 23.3358 24.0422 23.4603 24.0422 23.5901C24.0422 23.72 23.9909 23.8445 23.8993 23.9366Z" fill="#6096B4"/>
<path d="M23.5606 26.1102C23.4073 26.1098 23.2555 26.1399 23.1139 26.1987C22.9724 26.2574 22.8439 26.3438 22.736 26.4526C22.5179 26.672 22.3955 26.9687 22.3955 27.278C22.3955 27.5873 22.5179 27.8841 22.736 28.1034C22.8441 28.212 22.9727 28.2981 23.1142 28.3568C23.2557 28.4156 23.4074 28.4458 23.5606 28.4458C23.7139 28.4458 23.8656 28.4156 24.0071 28.3568C24.1486 28.2981 24.2771 28.212 24.3853 28.1034C24.6034 27.884 24.7257 27.5873 24.7257 27.278C24.7257 26.9687 24.6034 26.6719 24.3853 26.4525C24.2774 26.3437 24.1489 26.2574 24.0073 26.1986C23.8657 26.1398 23.7139 26.1098 23.5606 26.1102ZM23.8544 27.5739C23.8159 27.6125 23.7701 27.6432 23.7197 27.6642C23.6694 27.6851 23.6153 27.6959 23.5608 27.6959C23.5062 27.6959 23.4522 27.6851 23.4018 27.6642C23.3514 27.6432 23.3057 27.6125 23.2672 27.5739C23.189 27.4953 23.1451 27.3889 23.1451 27.2781C23.1451 27.1672 23.189 27.0609 23.2672 26.9823C23.3057 26.9436 23.3514 26.9129 23.4018 26.892C23.4522 26.8711 23.5062 26.8603 23.5608 26.8603C23.6153 26.8603 23.6693 26.8711 23.7197 26.892C23.7701 26.9129 23.8159 26.9436 23.8544 26.9823C23.9325 27.0609 23.9763 27.1673 23.9763 27.2781C23.9762 27.389 23.9323 27.4953 23.8542 27.5739H23.8544Z" fill="#6096B4"/>
<path d="M28.0581 22.7704C27.9499 22.6619 27.8214 22.5758 27.6799 22.517C27.5384 22.4582 27.3867 22.428 27.2334 22.428C27.0802 22.428 26.9285 22.4582 26.787 22.517C26.6455 22.5758 26.517 22.6619 26.4088 22.7704C26.1908 22.9898 26.0684 23.2865 26.0684 23.5958C26.0684 23.9051 26.1908 24.2019 26.4088 24.4212C26.517 24.5297 26.6455 24.6159 26.787 24.6746C26.9285 24.7334 27.0802 24.7636 27.2334 24.7636C27.3867 24.7636 27.5384 24.7334 27.6799 24.6746C27.8214 24.6159 27.9499 24.5297 28.0581 24.4212C28.2761 24.2018 28.3985 23.9051 28.3985 23.5958C28.3985 23.2865 28.2761 22.9898 28.0581 22.7704ZM27.5268 23.8916C27.4883 23.9303 27.4425 23.961 27.3921 23.982C27.3417 24.0029 27.2877 24.0137 27.2331 24.0137C27.1785 24.0137 27.1244 24.0029 27.074 23.982C27.0236 23.961 26.9778 23.9303 26.9393 23.8916C26.8612 23.813 26.8173 23.7066 26.8173 23.5958C26.8173 23.4849 26.8612 23.3786 26.9393 23.3C26.9778 23.2613 27.0236 23.2305 27.074 23.2096C27.1244 23.1886 27.1785 23.1778 27.2331 23.1778C27.2877 23.1778 27.3417 23.1886 27.3921 23.2096C27.4425 23.2305 27.4883 23.2613 27.5268 23.3C27.605 23.3786 27.6489 23.4849 27.6489 23.5957C27.6489 23.7066 27.6051 23.813 27.527 23.8916H27.5268Z" fill="#6096B4"/>
<path d="M23.5493 21.0702C23.7026 21.0706 23.8545 21.0405 23.996 20.9817C24.1376 20.923 24.2661 20.8366 24.374 20.7278C24.592 20.5084 24.7144 20.2117 24.7144 19.9024C24.7144 19.5931 24.592 19.2963 24.374 19.0769C24.2658 18.9684 24.1373 18.8823 23.9958 18.8235C23.8543 18.7647 23.7026 18.7345 23.5493 18.7345C23.3961 18.7345 23.2444 18.7647 23.1029 18.8235C22.9614 18.8823 22.8329 18.9684 22.7247 19.0769C22.5067 19.2963 22.3843 19.593 22.3843 19.9023C22.3843 20.2116 22.5067 20.5084 22.7247 20.7277C22.8326 20.8366 22.9611 20.9229 23.1027 20.9817C23.2442 21.0405 23.3961 21.0706 23.5493 21.0702ZM23.2556 19.6066C23.2941 19.5679 23.3398 19.5372 23.3902 19.5162C23.4406 19.4953 23.4946 19.4845 23.5492 19.4845C23.6037 19.4845 23.6577 19.4953 23.7081 19.5162C23.7585 19.5372 23.8042 19.5679 23.8427 19.6066C23.9209 19.6852 23.9647 19.7915 23.9647 19.9023C23.9647 20.0132 23.9209 20.1195 23.8427 20.1981C23.8042 20.2368 23.7585 20.2675 23.7081 20.2884C23.6577 20.3094 23.6037 20.3202 23.5491 20.3202C23.4946 20.3202 23.4405 20.3094 23.3902 20.2884C23.3398 20.2675 23.294 20.2368 23.2555 20.1981C23.1774 20.1195 23.1335 20.0131 23.1335 19.9022C23.1336 19.7913 23.1775 19.6849 23.2558 19.6063L23.2556 19.6066Z" fill="#6096B4"/>
<path d="M19.8765 22.4166C19.7232 22.4162 19.5714 22.4463 19.4298 22.5051C19.2883 22.5638 19.1598 22.6502 19.0519 22.759C18.8338 22.9784 18.7114 23.2751 18.7114 23.5844C18.7114 23.8938 18.8338 24.1905 19.0519 24.4099C19.16 24.5184 19.2886 24.6045 19.4301 24.6633C19.5716 24.722 19.7233 24.7523 19.8765 24.7523C20.0298 24.7523 20.1815 24.722 20.323 24.6633C20.4645 24.6045 20.593 24.5184 20.7012 24.4099C20.9192 24.1905 21.0416 23.8938 21.0416 23.5845C21.0416 23.2752 20.9192 22.9784 20.7012 22.7591C20.5933 22.6502 20.4648 22.5639 20.3232 22.5051C20.1816 22.4463 20.0298 22.4162 19.8765 22.4166ZM20.1703 23.8803C20.1318 23.919 20.086 23.9497 20.0356 23.9707C19.9852 23.9916 19.9311 24.0024 19.8765 24.0024C19.8219 24.0024 19.7678 23.9916 19.7174 23.9707C19.667 23.9497 19.6213 23.919 19.5828 23.8803C19.5046 23.8017 19.4607 23.6953 19.4607 23.5845C19.4607 23.4736 19.5046 23.3673 19.5828 23.2887C19.6213 23.25 19.667 23.2193 19.7174 23.1983C19.7679 23.1773 19.8219 23.1666 19.8765 23.1666C19.9311 23.1666 19.9852 23.1773 20.0356 23.1983C20.086 23.2193 20.1318 23.25 20.1703 23.2887C20.2484 23.3673 20.2922 23.4737 20.2922 23.5845C20.2922 23.6953 20.2484 23.8016 20.1703 23.8803Z" fill="#6096B4"/>
<path d="M23.5551 21.2488C23.248 21.248 22.9438 21.3083 22.6602 21.4261C22.3766 21.5438 22.1192 21.7168 21.903 21.9349C21.4657 22.3748 21.2202 22.9699 21.2202 23.5901C21.2202 24.2104 21.4657 24.8055 21.903 25.2453C22.1196 25.4628 22.3771 25.6354 22.6607 25.7531C22.9442 25.8709 23.2482 25.9315 23.5552 25.9315C23.8622 25.9315 24.1662 25.8709 24.4497 25.7531C24.7332 25.6354 24.9907 25.4628 25.2074 25.2453C25.6446 24.8054 25.8901 24.2104 25.8901 23.5901C25.8901 22.9699 25.6446 22.3748 25.2074 21.9349C24.9912 21.7168 24.7338 21.5438 24.4501 21.426C24.1665 21.3083 23.8623 21.248 23.5551 21.2488ZM24.6763 24.7157C24.5293 24.8633 24.3546 24.9805 24.1622 25.0604C23.9698 25.1403 23.7635 25.1815 23.5551 25.1815C23.3468 25.1815 23.1405 25.1403 22.9481 25.0604C22.7557 24.9805 22.581 24.8633 22.434 24.7157C22.1366 24.4166 21.9697 24.0119 21.9697 23.5901C21.9697 23.1683 22.1366 22.7637 22.434 22.4645C22.581 22.3169 22.7557 22.1998 22.9481 22.1199C23.1405 22.0399 23.3468 21.9988 23.5551 21.9988C23.7634 21.9988 23.9697 22.0399 24.1621 22.1199C24.3545 22.1998 24.5293 22.3169 24.6763 22.4645C24.9736 22.7637 25.1405 23.1683 25.1406 23.5901C25.1406 24.0119 24.9737 24.4166 24.6763 24.7157Z" fill="#6096B4"/>
<path d="M23.555 17.7653C20.3512 17.7653 17.7446 20.3783 17.7446 23.5903C17.7446 26.8022 20.3509 29.4153 23.555 29.4153C26.7591 29.4153 29.3654 26.8023 29.3654 23.5903C29.3654 20.3783 26.7589 17.7653 23.555 17.7653ZM23.555 28.6653C20.7647 28.6653 18.4946 26.3887 18.4946 23.5903C18.4946 20.7918 20.7647 18.5153 23.555 18.5153C26.3453 18.5153 28.6154 20.7919 28.6154 23.5903C28.6154 26.3886 26.3453 28.6651 23.555 28.6651V28.6653Z" fill="#6096B4"/>
</svg>
